<mxfile host="Electron" agent="Mozilla/5.0 (Macintosh; Intel Mac OS X 10_15_7) AppleWebKit/537.36 (KHTML, like Gecko) draw.io/27.0.9 Chrome/134.0.6998.205 Electron/35.4.0 Safari/537.36" version="27.0.9">
  <diagram name="Page-1" id="c0MG-RBC0vRgcLwglr-d">
    <mxGraphModel dx="439" dy="264" grid="1" gridSize="10" guides="1" tooltips="1" connect="1" arrows="1" fold="1" page="1" pageScale="1" pageWidth="850" pageHeight="1100" math="1" shadow="0">
      <root>
        <mxCell id="0" />
        <mxCell id="1" style="" parent="0" />
        <mxCell id="UrFGi6wFs18K0bhvfEZ_-4" value="" style="rounded=1;whiteSpace=wrap;html=1;arcSize=8;fillColor=#dae8fc;strokeColor=#6c8ebf;" parent="1" vertex="1">
          <mxGeometry x="240" y="300" width="220" height="160" as="geometry" />
        </mxCell>
        <mxCell id="1xT_XLDmfG5W3h2NDaip-9" value="" style="rounded=1;whiteSpace=wrap;html=1;arcSize=10;fillColor=#fff2cc;strokeColor=#d6b656;" parent="1" vertex="1">
          <mxGeometry x="265" y="320" width="155" height="80" as="geometry" />
        </mxCell>
        <mxCell id="1xT_XLDmfG5W3h2NDaip-23" value="" style="ellipse;whiteSpace=wrap;html=1;aspect=fixed;" parent="1" vertex="1">
          <mxGeometry x="425" y="375" width="30" height="30" as="geometry" />
        </mxCell>
        <mxCell id="LIjWM7wSsENE5Vc6BBoP-16" value="" style="rounded=1;whiteSpace=wrap;html=1;arcSize=10;fillColor=#d5e8d4;strokeColor=#82b366;" vertex="1" parent="1">
          <mxGeometry x="265" y="410" width="155" height="40" as="geometry" />
        </mxCell>
        <mxCell id="UrFGi6wFs18K0bhvfEZ_-6" value="sigs" style="" parent="0" />
        <mxCell id="1xT_XLDmfG5W3h2NDaip-19" value="" style="endArrow=classic;html=1;rounded=0;" parent="UrFGi6wFs18K0bhvfEZ_-6" edge="1">
          <mxGeometry width="50" height="50" relative="1" as="geometry">
            <mxPoint x="153" y="390" as="sourcePoint" />
            <mxPoint x="266" y="350" as="targetPoint" />
            <Array as="points">
              <mxPoint x="250" y="390" />
              <mxPoint x="250" y="350" />
            </Array>
          </mxGeometry>
        </mxCell>
        <mxCell id="1xT_XLDmfG5W3h2NDaip-27" value="" style="endArrow=none;html=1;rounded=0;" parent="UrFGi6wFs18K0bhvfEZ_-6" edge="1">
          <mxGeometry width="50" height="50" relative="1" as="geometry">
            <mxPoint x="429" y="401" as="sourcePoint" />
            <mxPoint x="450" y="379" as="targetPoint" />
          </mxGeometry>
        </mxCell>
        <mxCell id="1xT_XLDmfG5W3h2NDaip-28" value="" style="endArrow=none;html=1;rounded=0;" parent="UrFGi6wFs18K0bhvfEZ_-6" edge="1">
          <mxGeometry width="50" height="50" relative="1" as="geometry">
            <mxPoint x="430" y="379" as="sourcePoint" />
            <mxPoint x="451" y="401" as="targetPoint" />
          </mxGeometry>
        </mxCell>
        <mxCell id="LIjWM7wSsENE5Vc6BBoP-8" value="" style="endArrow=classic;html=1;rounded=0;" edge="1" parent="UrFGi6wFs18K0bhvfEZ_-6">
          <mxGeometry width="50" height="50" relative="1" as="geometry">
            <mxPoint x="420" y="350" as="sourcePoint" />
            <mxPoint x="440" y="375" as="targetPoint" />
            <Array as="points">
              <mxPoint x="440" y="350" />
            </Array>
          </mxGeometry>
        </mxCell>
        <mxCell id="LIjWM7wSsENE5Vc6BBoP-15" value="" style="endArrow=classic;html=1;rounded=0;" edge="1" parent="UrFGi6wFs18K0bhvfEZ_-6">
          <mxGeometry width="50" height="50" relative="1" as="geometry">
            <mxPoint x="250" y="384" as="sourcePoint" />
            <mxPoint x="265" y="429" as="targetPoint" />
            <Array as="points">
              <mxPoint x="250" y="429" />
            </Array>
          </mxGeometry>
        </mxCell>
        <mxCell id="LIjWM7wSsENE5Vc6BBoP-17" value="" style="endArrow=classic;html=1;rounded=0;" edge="1" parent="UrFGi6wFs18K0bhvfEZ_-6">
          <mxGeometry width="50" height="50" relative="1" as="geometry">
            <mxPoint x="420" y="430" as="sourcePoint" />
            <mxPoint x="440" y="405" as="targetPoint" />
            <Array as="points">
              <mxPoint x="440" y="430" />
            </Array>
          </mxGeometry>
        </mxCell>
        <mxCell id="LIjWM7wSsENE5Vc6BBoP-18" value="" style="endArrow=classic;html=1;rounded=0;" edge="1" parent="UrFGi6wFs18K0bhvfEZ_-6">
          <mxGeometry width="50" height="50" relative="1" as="geometry">
            <mxPoint x="455" y="390" as="sourcePoint" />
            <mxPoint x="535" y="390" as="targetPoint" />
          </mxGeometry>
        </mxCell>
        <mxCell id="UrFGi6wFs18K0bhvfEZ_-5" value="pics" style="" parent="0" />
        <mxCell id="1xT_XLDmfG5W3h2NDaip-6" value="" style="shape=mxgraph.signs.healthcare.brain;html=1;pointerEvents=1;fillColor=#000000;strokeColor=none;verticalLabelPosition=bottom;verticalAlign=top;align=center;" parent="UrFGi6wFs18K0bhvfEZ_-5" vertex="1">
          <mxGeometry x="320" y="346" width="55" height="50" as="geometry" />
        </mxCell>
        <mxCell id="UrFGi6wFs18K0bhvfEZ_-8" value="name" style="" parent="0" />
        <mxCell id="LIjWM7wSsENE5Vc6BBoP-11" value="Conventional Controller&lt;div&gt;for Input Constraint Handling&lt;/div&gt;" style="text;html=1;align=center;verticalAlign=middle;resizable=0;points=[];autosize=1;strokeColor=none;fillColor=none;fontFamily=Times New Roman;" vertex="1" parent="UrFGi6wFs18K0bhvfEZ_-8">
          <mxGeometry x="257" y="408" width="170" height="40" as="geometry" />
        </mxCell>
        <mxCell id="LIjWM7wSsENE5Vc6BBoP-12" value="Neural-Network" style="text;html=1;align=center;verticalAlign=middle;resizable=0;points=[];autosize=1;strokeColor=none;fillColor=none;fontFamily=Times New Roman;" vertex="1" parent="UrFGi6wFs18K0bhvfEZ_-8">
          <mxGeometry x="300" y="320" width="100" height="30" as="geometry" />
        </mxCell>
        <mxCell id="LIjWM7wSsENE5Vc6BBoP-13" value="Feedback Signal" style="text;html=1;align=center;verticalAlign=middle;resizable=0;points=[];autosize=1;strokeColor=none;fillColor=none;fontFamily=Times New Roman;fontSize=10;" vertex="1" parent="UrFGi6wFs18K0bhvfEZ_-8">
          <mxGeometry x="154" y="365" width="90" height="30" as="geometry" />
        </mxCell>
        <mxCell id="LIjWM7wSsENE5Vc6BBoP-14" value="Neuro-Adaptive Control" style="text;html=1;align=center;verticalAlign=middle;resizable=0;points=[];autosize=1;strokeColor=none;fillColor=none;fontFamily=Times New Roman;" vertex="1" parent="UrFGi6wFs18K0bhvfEZ_-8">
          <mxGeometry x="285" y="296" width="140" height="30" as="geometry" />
        </mxCell>
        <mxCell id="LIjWM7wSsENE5Vc6BBoP-19" value="Control Input" style="text;html=1;align=center;verticalAlign=middle;resizable=0;points=[];autosize=1;strokeColor=none;fillColor=none;fontFamily=Times New Roman;fontSize=10;" vertex="1" parent="UrFGi6wFs18K0bhvfEZ_-8">
          <mxGeometry x="456" y="365" width="80" height="30" as="geometry" />
        </mxCell>
        <mxCell id="UrFGi6wFs18K0bhvfEZ_-7" value="math" style="" parent="0" />
        <mxCell id="LIjWM7wSsENE5Vc6BBoP-9" value="$$+$$" style="text;html=1;align=center;verticalAlign=middle;resizable=0;points=[];autosize=1;strokeColor=none;fillColor=none;" vertex="1" parent="UrFGi6wFs18K0bhvfEZ_-7">
          <mxGeometry x="410" y="383" width="60" height="30" as="geometry" />
        </mxCell>
        <mxCell id="LIjWM7wSsENE5Vc6BBoP-10" value="$$+$$" style="text;html=1;align=center;verticalAlign=middle;resizable=0;points=[];autosize=1;strokeColor=none;fillColor=none;" vertex="1" parent="UrFGi6wFs18K0bhvfEZ_-7">
          <mxGeometry x="410" y="366" width="60" height="30" as="geometry" />
        </mxCell>
      </root>
    </mxGraphModel>
  </diagram>
</mxfile>
